<svg width="30" height="30" viewBox="0 0 30 30" fill="none" xmlns="http://www.w3.org/2000/svg">
<g id="material-symbols-light:directions-bus-outline-rounded">
<path id="Vector" d="M9.7125 22.5V24.2313C9.7125 24.4446 9.6375 24.6263 9.4875 24.7763C9.33667 24.9254 9.15417 25 8.94 25C8.72583 25 8.54417 24.925 8.395 24.775C8.24667 24.6258 8.1725 24.4446 8.1725 24.2313V22.005C7.76583 21.8283 7.34375 21.4529 6.90625 20.8788C6.46875 20.3038 6.25 19.6421 6.25 18.8938V7.5C6.25 6.20333 6.95167 5.25417 8.355 4.6525C9.75833 4.05083 11.9733 3.75 15 3.75C18.1358 3.75 20.3783 4.03917 21.7275 4.6175C23.0767 5.19583 23.7508 6.15667 23.75 7.5V18.8938C23.75 19.6421 23.5312 20.3038 23.0938 20.8788C22.6562 21.4538 22.2342 21.8288 21.8275 22.0038V24.2313C21.8275 24.4446 21.7525 24.6263 21.6025 24.7763C21.4525 24.9254 21.27 25 21.055 25C20.84 25 20.6588 24.925 20.5113 24.775C20.3629 24.6258 20.2888 24.4446 20.2888 24.2313V22.5H9.7125ZM15.015 6.9225H22.3988H7.63H15.015ZM20 15H7.5H22.5H20ZM7.5 13.75H22.5V8.1725H7.5V13.75ZM10.6313 19.5188C11.0196 19.5188 11.3479 19.3829 11.6163 19.1113C11.8846 18.8388 12.0187 18.5079 12.0187 18.1188C12.0187 17.7296 11.8829 17.4013 11.6112 17.1338C11.3387 16.8654 11.0079 16.7313 10.6187 16.7313C10.2296 16.7313 9.90125 16.8671 9.63375 17.1388C9.36542 17.4113 9.23125 17.7421 9.23125 18.1313C9.23125 18.5204 9.36708 18.8488 9.63875 19.1163C9.91125 19.3846 10.2421 19.5188 10.6313 19.5188ZM19.3813 19.5188C19.7696 19.5188 20.0979 19.3829 20.3662 19.1113C20.6346 18.8388 20.7687 18.5079 20.7687 18.1188C20.7687 17.7296 20.6329 17.4013 20.3612 17.1338C20.0887 16.8654 19.7579 16.7313 19.3687 16.7313C18.9796 16.7313 18.6512 16.8671 18.3837 17.1388C18.1154 17.4113 17.9813 17.7421 17.9813 18.1313C17.9813 18.5204 18.1171 18.8488 18.3888 19.1163C18.6613 19.3846 18.9921 19.5188 19.3813 19.5188ZM7.63 6.9225H22.3988C22.1821 6.28083 21.5142 5.8 20.395 5.48C19.2758 5.16 17.4825 5 15.015 5C12.5608 5 10.7742 5.1625 9.655 5.4875C8.53583 5.81167 7.86083 6.29 7.63 6.9225ZM10 21.25H20C20.6875 21.25 21.2762 21.0054 21.7663 20.5163C22.2563 20.0271 22.5008 19.4383 22.5 18.75V15H7.5V18.75C7.5 19.4375 7.745 20.0263 8.235 20.5163C8.725 21.0063 9.31333 21.2508 10 21.25Z" fill="#424242"/>
</g>
</svg>
