<svg width="30" height="30" viewBox="0 0 30 30" fill="none" xmlns="http://www.w3.org/2000/svg">
<g id="arcticons:where-is-my-train">
<path id="Vector" d="M8.95312 8.07422H21.0462V12.983H8.95312V8.07422Z" stroke="#424242" stroke-linecap="round" stroke-linejoin="round"/>
<path id="Vector_2" d="M11.3412 19.1898C12.2138 19.1898 12.9212 18.4824 12.9212 17.6098C12.9212 16.7372 12.2138 16.0298 11.3412 16.0298C10.4686 16.0298 9.76123 16.7372 9.76123 17.6098C9.76123 18.4824 10.4686 19.1898 11.3412 19.1898Z" stroke="#424242" stroke-linecap="round" stroke-linejoin="round"/>
<path id="Vector_3" d="M18.6806 19.1898C19.5532 19.1898 20.2606 18.4824 20.2606 17.6098C20.2606 16.7372 19.5532 16.0298 18.6806 16.0298C17.808 16.0298 17.1006 16.7372 17.1006 17.6098C17.1006 18.4824 17.808 19.1898 18.6806 19.1898Z" stroke="#424242" stroke-linecap="round" stroke-linejoin="round"/>
<path id="Vector_4" d="M13.9681 5.20393H16.0319M19.4437 4.01268H18.39L18.1912 3.51018C18.1014 3.28376 17.9457 3.08955 17.7442 2.9527C17.5427 2.81585 17.3048 2.74268 17.0612 2.74268H12.9387C12.6952 2.74268 12.4572 2.81585 12.2557 2.9527C12.0543 3.08955 11.8985 3.28376 11.8087 3.51018L11.61 4.01205H10.5562C10.0011 4.01197 9.45139 4.12124 8.93849 4.33362C8.42559 4.54601 7.95955 4.85734 7.56698 5.24985C7.17441 5.64236 6.86301 6.10836 6.65055 6.62123C6.43809 7.1341 6.32874 7.68379 6.32874 8.23893V18.3577C6.32874 19.3416 6.71961 20.2853 7.41537 20.981C8.11113 21.6768 9.05478 22.0677 10.0387 22.0677H19.96C20.9439 22.0677 21.8876 21.6768 22.5834 20.981C23.2791 20.2853 23.67 19.3416 23.67 18.3577V8.23893C23.67 7.68379 23.5606 7.1341 23.3482 6.62123C23.1357 6.10836 22.8243 5.64236 22.4317 5.24985C22.0392 4.85734 21.5731 4.54601 21.0602 4.33362C20.5473 4.12124 19.9976 4.01197 19.4425 4.01205M11.765 22.0677L7.27936 27.1177M21.0469 25.2839H8.95311M19.6056 23.6196H10.3944M18.235 22.0677L22.7206 27.1177" stroke="#424242" stroke-linecap="round" stroke-linejoin="round"/>
</g>
</svg>
